<svg xmlns="http://www.w3.org/2000/svg" xmlns:xlink="http://www.w3.org/1999/xlink" width="500" zoomAndPan="magnify" viewBox="0 0 375 374.999991" height="500" preserveAspectRatio="xMidYMid meet" version="1.0"><path fill="#000000" d="M 222.203125 220.714844 L 212.570312 220.714844 L 243.859375 152.0625 L 275.042969 220.777344 L 265.34375 220.777344 L 258.300781 204.964844 L 229.375 204.964844 Z M 233.03125 196.820312 L 254.738281 196.820312 L 244.003906 172.125 Z M 86.769531 162.703125 C 92.503906 156.390625 100.777344 152.605469 110.601562 152.605469 L 110.601562 152.589844 C 120.40625 152.589844 128.664062 156.390625 134.414062 162.667969 C 140.132812 168.945312 143.375 177.636719 143.375 187.378906 L 143.375 187.953125 C 143.265625 197.457031 140.039062 205.941406 134.414062 212.105469 C 128.664062 218.382812 120.421875 222.183594 110.632812 222.183594 L 110.503906 222.183594 C 100.695312 222.152344 92.472656 218.367188 86.769531 212.105469 C 81.019531 205.828125 77.824219 197.140625 77.824219 187.429688 L 77.824219 187.300781 C 77.839844 177.605469 81.050781 168.945312 86.769531 162.703125 Z M 86.671875 187.410156 C 86.769531 203.015625 95.96875 214.070312 110.601562 214.132812 C 125.152344 214.085938 134.433594 203.015625 134.527344 187.410156 C 134.433594 171.710938 125.152344 160.738281 110.601562 160.6875 C 95.96875 160.753906 86.769531 171.710938 86.671875 187.410156 Z M 185.222656 182.429688 L 185.238281 182.429688 L 185.253906 182.445312 C 194.839844 185.144531 205.636719 189.34375 205.636719 202.457031 C 205.636719 206.914062 204.152344 211.914062 200.285156 215.765625 C 196.40625 219.613281 190.253906 222.21875 181.328125 222.21875 L 181.132812 222.21875 C 170.191406 222.183594 161.757812 217.648438 156.585938 211.46875 L 155.257812 209.886719 L 163.40625 206.371094 L 163.835938 206.769531 L 164.15625 207.058594 C 168.117188 210.859375 173.867188 214.117188 181.4375 214.117188 C 193.945312 213.976562 196.644531 207.648438 196.773438 202.84375 C 196.722656 198.671875 194.871094 196.4375 191.515625 194.425781 C 188.433594 192.609375 184.160156 191.421875 179.699219 190.179688 L 179.695312 190.179688 C 179.332031 190.078125 178.964844 189.976562 178.59375 189.871094 C 169.105469 187.253906 158.246094 183.738281 158.214844 171.296875 C 158.214844 159.746094 168.628906 152.65625 180.75 152.605469 L 180.847656 152.605469 C 190.734375 152.589844 198.527344 156.136719 203.734375 162.144531 L 205.09375 163.707031 L 196.996094 167.316406 L 196.582031 166.886719 L 196.277344 166.597656 C 192.109375 162.542969 186.679688 160.6875 180.558594 160.671875 C 172.492188 160.738281 167.03125 165.144531 167.03125 171.007812 C 167.109375 174.457031 168.851562 176.328125 172.238281 178.132812 C 174.972656 179.53125 178.636719 180.5625 182.503906 181.65625 C 183.402344 181.90625 184.3125 182.164062 185.222656 182.429688 Z M 365.238281 204.949219 L 365.230469 204.960938 L 365.207031 204.949219 Z M 365.230469 204.960938 L 364.792969 205.523438 L 364.503906 205.910156 C 360.703125 210.8125 354.328125 214.117188 347.363281 214.101562 C 333.148438 214.070312 322.144531 203.226562 322.082031 187.378906 C 322.128906 171.359375 333.132812 160.703125 347.363281 160.671875 L 347.382812 160.671875 C 354.25 160.65625 360.542969 163.898438 364.390625 168.722656 L 364.679688 169.089844 L 365.109375 169.648438 L 373.175781 166.054688 L 371.964844 164.523438 C 366.339844 157.398438 358.035156 152.574219 347.382812 152.605469 L 347.316406 152.605469 C 337.863281 152.621094 329.316406 156.136719 323.148438 162.269531 C 316.984375 168.402344 313.246094 177.140625 313.246094 187.394531 L 313.246094 187.425781 C 313.246094 197.667969 316.984375 206.386719 323.148438 212.535156 C 329.332031 218.671875 337.875 222.199219 347.363281 222.199219 L 347.445312 222.199219 C 358.082031 222.199219 366.101562 217.457031 372.058594 210.15625 L 372.519531 209.597656 L 373.257812 208.703125 Z M 52.585938 154.203125 L 32.042969 201.226562 L 11.3125 153.660156 L 0.5625 153.660156 L 0.5625 221.035156 L 9.125 221.035156 L 9.125 170.734375 L 32.078125 222.152344 L 54.980469 170.734375 L 54.980469 221.035156 L 63.542969 221.035156 L 63.542969 153.660156 L 52.808594 153.660156 Z M 288.839844 221.035156 L 287.945312 221.035156 L 287.945312 153.660156 L 296.492188 153.660156 L 296.492188 221.035156 Z M 288.839844 221.035156 " fill-opacity="1" fill-rule="evenodd"/></svg>